<?xml version="1.0" encoding="UTF-8"?>
<svg id="Capa_2" data-name="Capa 2" xmlns="http://www.w3.org/2000/svg" viewBox="0 0 20 22.48">
  <defs>
    <style>
      .cls-1 {
        fill: #fff;
      }
    </style>
  </defs>
  <g id="Capa_1-2" data-name="Capa 1">
    <g>
      <path class="cls-1" d="m19.76,17.34s-2.18,5.14-2.18,5.14H7.68s-.29,0-.29,0h0c-.42-.1-.81-.33-1.11-.68L.54,15.24c-.79-.9-.7-2.28.2-3.07.41-.36.92-.54,1.43-.54.61,0,1.21.25,1.64.74l2.5,2.85s.02,0,.02,0V5.35s0-.02,0-.03c.02-1.18.95-2.18,2.14-2.2.62-.01,1.17.23,1.58.64.39.39.64.94.64,1.54v5.24s0,0,.01,0c.5-.05,1.02.02,1.52.23l5.82,2.41c1.62.67,2.39,2.53,1.72,4.15Z"/>
      <path class="cls-1" d="m13.92,5.41c0,1.76-.84,3.33-2.15,4.32v-4.32c0-1.8-1.46-3.26-3.26-3.26s-3.26,1.46-3.26,3.26v4.32c-1.31-.99-2.15-2.55-2.15-4.32s.84-3.33,2.15-4.32c.06-.05.13-.1.2-.14.87-.6,1.92-.95,3.06-.95s2.19.35,3.06.95l.2.14c1.31.99,2.15,2.56,2.15,4.32Z"/>
    </g>
  </g>
</svg>