<?xml version="1.0" encoding="UTF-8"?>
<svg id="Capa_2" data-name="Capa 2" xmlns="http://www.w3.org/2000/svg" viewBox="0 0 20 20">
  <defs>
    <style>
      .cls-1 {
        fill: #fff;
      }
    </style>
  </defs>
  <g id="Capa_1-2" data-name="Capa 1">
    <path class="cls-1" d="m9.19.03C4.34.41.41,4.34.03,9.19c-.49,6.15,4.63,11.27,10.78,10.78,4.85-.39,8.78-4.31,9.16-9.16C20.46,4.66,15.34-.46,9.19.03Zm7.84,14.66c-.61.93-1.4,1.72-2.33,2.34l-4.7-4.69-4.69,4.7c-.93-.62-1.72-1.41-2.34-2.34l4.7-4.7L2.97,5.3c.62-.93,1.41-1.72,2.34-2.33l4.69,4.69,4.69-4.69c.93.61,1.73,1.41,2.34,2.34l-4.69,4.69,4.69,4.69Z"/>
  </g>
</svg>