<?xml version="1.0" encoding="UTF-8"?>
<svg id="Capa_2" data-name="Capa 2" xmlns="http://www.w3.org/2000/svg" viewBox="0 0 115.95 90.54">
  <defs>
    <style>
      .cls-1 {
        fill: #fff;
      }

      .cls-2 {
        fill: #005268;
      }
    </style>
  </defs>
  <g id="Capa_1-2" data-name="Capa 1">
    <g>
      <path class="cls-1" d="m93.12,26.11v1.92s-6.76,3.22-8.92,3.84c-2.16.62-4.68,1.29-6.81,1.29h-.64c-2.13,0-4.65-.67-6.81-1.29-1.24-.36-3.98-1.56-6.09-2.53l.24-2.14.12-1.04.02-.21c3.21-.14,7.89-.3,12.84-.3,7.05,0,13.54.32,16.05.46Z"/>
      <path class="cls-1" d="m90.66,14.74c-3.12-3.38-10.28-7.21-13.55-7.13h-.08c-2.63-.06-7.78,2.41-11.32,5.13l-1.29,11.56c3.22-.14,7.8-.29,12.65-.29,6.99,0,13.44.32,16.05.46v-.21c.7-.34,2.01-1.3,2.01-2.37,0-1.96-2.17-4.66-4.47-7.15Zm-6.08,2.01l-7.12,3.44c-.19.09-.41.09-.59,0l-7.13-3.44c-.23-.11-.38-.35-.38-.61,0-.19.08-.36.2-.48s.29-.2.47-.2h5.74v.03c0,.68.48,1.24,1.13,1.36.09.02.17.03.26.03s.18,0,.27-.03c.64-.12,1.13-.68,1.13-1.36v-.03h5.73c.37,0,.67.31.67.68,0,.26-.14.5-.38.61Z"/>
      <path class="cls-1" d="m91.12,30.96l-.48,4.29c-.03.27-.08.54-.15.8l-1.73,6.47c-.13.5-.33.98-.61,1.42l-4.34,7.12c-.42.68-.98,1.26-1.64,1.69-.82.52-1.76.79-2.71.79h-3.64l-5.79-2.99-4.04-6.6c-.27-.45-.48-.93-.61-1.43l-1.73-6.47c-.07-.26-.12-.53-.15-.8l-.25-2.24.11-.42c.11-.41.2-.87.27-1.35.73.33,1.56.7,2.37,1.06,1.57.68,3.1,1.31,3.94,1.55,2.16.63,4.68,1.3,6.81,1.3h.64c2.13,0,4.65-.67,6.81-1.3.89-.25,2.57-.95,4.23-1.68.95-.42,1.9-.85,2.69-1.21Z"/>
      <path class="cls-1" d="m112.76,66.11c-.07-.33-.29-.63-.59-.78l-23.19-11.98c-.18-.09-.33-.24-.44-.42l-1.07-1.72-2.8,6.98c1.52,1.05,2.59,2.69,2.95,4.54l.04.18.02.18,3.48,26.67.1.78h24.69l-3.19-24.43Zm-18.89,17.13l3.64-4.15-3.97-4.38,6.29,4.38-5.96,4.15Z"/>
    </g>
    <g>
      <g>
        <path class="cls-1" d="m60.43,20.2v2.1s-7.38,3.51-9.74,4.19c-2.35.67-5.1,1.41-7.43,1.41h-.7c-2.33,0-5.08-.74-7.44-1.41-2.35-.68-9.73-4.19-9.73-4.19v-2.1c1-.06,2.58-.14,4.55-.22,3.44-.14,8.08-.28,12.97-.28s9.53.14,12.97.28c1.97.08,3.55.16,4.55.22Z"/>
        <path d="m55.31,26.81c-.23.1-.45.2-.68.3.23-.09.45-.19.68-.29.26-.11.52-.23.78-.35-.26.11-.52.23-.78.34Zm-12.7-13.11l.08.04c.2.1.44.1.64,0l.08-.04h-.8Z"/>
      </g>
      <path class="cls-1" d="m62.37,14.29c-.66-1.95-2.59-4.31-4.63-6.5C54.34,4.1,46.52-.08,42.95,0h-.09c-3.55-.08-11.37,4.1-14.78,7.79-2.04,2.19-3.97,4.55-4.63,6.5-.16.46-.25.89-.25,1.3,0,.64.43,1.25.95,1.73l2.26,1.03c3.3-.16,9.66-.44,16.5-.44s13.21.28,16.5.44l2.26-1.03c.52-.48.95-1.09.95-1.73,0-.41-.09-.84-.25-1.3Zm-11.26-4.31l-7.7,3.72-.08.04c-.2.1-.44.1-.64,0l-.08-.04-7.7-3.72c-.26-.12-.42-.38-.42-.66,0-.21.09-.4.22-.53.13-.13.32-.22.51-.22h6.27v.04c0,.74.52,1.35,1.23,1.48.1.02.19.03.29.03.09,0,.19,0,.29-.03.7-.13,1.23-.74,1.23-1.48v-.04h6.26c.4,0,.73.34.73.75,0,.28-.15.54-.41.66Z"/>
      <path class="cls-1" d="m58.25,25.49l-.53,4.65v.04c-.03.29-.09.58-.16.87l-1.89,7.06c-.04.14-.08.28-.12.42-.14.4-.32.78-.54,1.14l-4.75,7.77c-.16.26-.34.51-.54.74-.36.43-.78.8-1.25,1.1-.55.35-1.15.6-1.78.74-.38.09-.78.13-1.18.13h-5.2c-.51,0-1.01-.07-1.5-.2-.5-.15-.97-.36-1.42-.64l-.04-.03c-.47-.3-.89-.67-1.24-1.1-.21-.23-.39-.48-.55-.74l-4.75-7.77c-.29-.47-.51-.98-.66-1.52,0,0,0-.03,0-.04l-1.88-7.06c-.08-.28-.13-.58-.16-.88v-.03l-.53-4.65c.95.43,2.11.96,3.25,1.46,1.71.75,3.39,1.44,4.3,1.7,2.36.68,5.11,1.42,7.44,1.42h.7c2.33,0,5.08-.74,7.43-1.42.86-.24,2.37-.86,3.94-1.54.23-.09.45-.19.68-.29.26-.11.52-.23.78-.35.77-.34,1.51-.68,2.16-.98Z"/>
      <path class="cls-1" d="m46.73,54.39c0,.45-.16.89-.45,1.23l-.44.52-1.46,1.74s-.07.07-.11.11v.02s1.22,7.29,1.22,7.29l-2.58,6.42-2.58-6.44,1.21-7.3s0,0-.02-.02c-.03-.03-.05-.06-.07-.08l-1.47-1.74-.44-.52c-.29-.34-.45-.78-.45-1.23s.16-.86.41-1.19c.13-.16.28-.3.46-.41.18-.12.38-.21.6-.26l1.9-.46c.15-.04.3-.06.45-.06s.3.02.45.06l1.9.46c.13.03.26.08.37.13.66.31,1.1.98,1.1,1.73Z"/>
      <path class="cls-2" d="m82,64.85l-.13-.98c-.07-.36-.31-.69-.64-.85l-2.77-1.43-3.39-1.75-6.24-3.23-5-2.58-7.92-4.09s-.07-.04-.1-.06c-.16-.1-.28-.24-.38-.4l-1.17-1.88-.05.14,1.08,1.74c.1.16.22.3.38.4.03.02.06.04.1.06l25.32,13.08c.33.16.57.49.64.85l3.48,26.67h.14l-3.35-25.69Zm-48.6-12.61l-1.86-4.64-.08.14,1.8,4.5.89,2.2,8.62,21.47.07-.17-8.55-21.3-.89-2.2Z"/>
      <g>
        <path class="cls-2" d="m54.12,47.6l-1.84,4.59-.9,2.25-8.54,21.3.07.17,8.61-21.47.9-2.25,1.79-4.45-.09-.14Zm-23.87,1.88c-.1.16-.22.29-.38.39-.04.03-.08.05-.12.07l-25.3,13.08c-.34.16-.58.49-.66.85l-3.79,26.67h.14l3.79-26.67c.08-.36.32-.69.66-.85l25.3-13.08s.08-.04.12-.07c.16-.1.28-.23.38-.39l1.07-1.74-.06-.14-1.15,1.88Z"/>
        <path class="cls-1" d="m81.73,63.87c-.07-.36-.31-.69-.64-.85l-25.32-13.08s-.07-.04-.1-.06c-.16-.1-.28-.24-.38-.4l-1.08-1.74-1.79,4.45-.9,2.25-8.61,21.47-.07-.17-.07.17-8.62-21.47-.89-2.2-1.8-4.5-1.07,1.74c-.1.16-.22.29-.38.39-.04.03-.08.05-.12.07l-25.3,13.08c-.34.16-.58.49-.66.85L.14,90.54h85.07l-3.48-26.67Zm-20.48,18.7l3.97-4.53-4.33-4.78,6.87,4.78-6.51,4.53Z"/>
      </g>
    </g>
  </g>
</svg>