<?xml version="1.0" encoding="UTF-8"?>
<svg id="Capa_2" data-name="Capa 2" xmlns="http://www.w3.org/2000/svg" viewBox="0 0 33.32 17.49">
  <defs>
    <style>
      .cls-1 {
        fill: #fff;
      }
    </style>
  </defs>
  <g id="Capa_1-2" data-name="Capa 1">
    <path class="cls-1" d="m26.2,5.25h-1.15l-.97,6.21h.95c1.32,0,2.01-.64,2.23-2.01l.35-2.27c.03-.24.05-.46.05-.64,0-.92-.44-1.29-1.46-1.29Zm0,0h-1.15l-.97,6.21h.95c1.32,0,2.01-.64,2.23-2.01l.35-2.27c.03-.24.05-.46.05-.64,0-.92-.44-1.29-1.46-1.29ZM31.41,0H1.92C.86,0,0,.86,0,1.92v13.66c0,1.06.86,1.91,1.92,1.91h29.49c1.06,0,1.91-.85,1.91-1.91V1.92c0-1.06-.85-1.92-1.91-1.92Zm-14.76,4.49l-1.81,1.45c-.15-.23-.33-.44-.51-.64l1.81-1.45c.19.21.36.42.51.64Zm-3.04-2.43c.26.11.5.23.74.36l-1.01,2.1c-.23-.14-.48-.26-.74-.36l1.01-2.1Zm-3.06-.5c.14,0,.27-.02.41-.02s.28,0,.41.02v2.32c-.13,0-.27-.02-.41-.02s-.27.01-.41.02V1.56Zm-2.24.5l1.01,2.1c-.26.1-.5.22-.74.36l-1.01-2.1c.24-.13.49-.25.74-.36Zm-2.53,1.79l1.82,1.45c-.19.2-.36.41-.51.64l-1.82-1.45c.16-.22.33-.43.51-.64Zm-1.51,2.71l2.27.52c-.09.26-.15.52-.19.8l-2.26-.52c.04-.27.11-.54.18-.8Zm-.18,3.1l2.27-.52c.03.22.07.43.13.64-.09.07-.18.14-.25.23l-1.97.45c-.07-.26-.14-.53-.18-.8Zm7.28,5.8c-.13,0-.27,0-.41,0s-.27,0-.41,0v-1.74s.05-.07.07-.11c0,0,0-.01.02-.01h.03c.25,0,.5-.08.7-.2v2.06Zm.21-2.87c-.11.27-.33.48-.6.57h-.02c-.14,0-.27,0-.41-.02v.06s-.09,0-.14-.02c-.03.08-.07.16-.11.23-.21.34-.59.57-1.02.57-.16,0-.31-.04-.45-.09-.16-.07-.3-.16-.42-.29-.13.1-.29.18-.46.21-.08.02-.16.03-.25.03-.45,0-.84-.25-1.05-.62-.13.05-.27.08-.42.08-.67,0-1.2-.54-1.2-1.2s.53-1.2,1.2-1.2h.02c.05-.47.38-.86.82-1,.12-.03.24-.05.37-.05h.09c.4.03.75.26.94.59.23-.25.56-.4.93-.4.68,0,1.24.53,1.29,1.2.53.02.96.45.96.99,0,.13-.03.25-.07.36Zm.43-.08c.02-.09.03-.19.03-.28,0-.64-.43-1.17-1.01-1.33-.2-.72-.86-1.24-1.63-1.24-.31,0-.61.08-.87.24-.26-.25-.6-.41-.97-.43-.05,0-.08,0-.12,0-.17,0-.33.03-.48.08-.04-.17-.08-.34-.1-.52-.02-.17-.03-.34-.03-.51,0-.18,0-.35.03-.51.04-.28.1-.55.18-.81.11-.33.27-.64.45-.92.15-.23.32-.45.51-.64.24-.25.51-.47.81-.65.23-.14.48-.26.74-.35.32-.12.65-.2,1-.23.14-.01.27-.02.41-.02s.28,0,.41.02c.35.03.69.11,1.01.23.26.09.5.21.74.35.29.18.56.4.8.65.19.19.36.41.51.64.19.28.34.59.45.92.09.26.15.53.18.81.02.16.03.33.03.51,0,.17,0,.34-.03.51-.03.28-.09.55-.18.8-.11.33-.26.64-.45.93-.15.23-.32.45-.51.64-.24.25-.51.46-.8.65-.24.14-.48.26-.74.35-.12.05-.25.08-.37.12Zm1.6,2.44l-1.01-2.09c.26-.1.51-.22.74-.36l1.01,2.1c-.24.13-.48.25-.74.35Zm2.53-1.78l-1.81-1.45c.18-.2.36-.42.51-.64l1.81,1.44c-.15.23-.32.44-.51.65Zm1.51-2.71l-2.26-.52c.08-.26.14-.53.18-.8l2.26.52c-.04.27-.1.54-.18.8Zm-2.08-2.58c-.04-.28-.1-.54-.18-.8l2.26-.52c.08.26.14.53.18.8l-2.26.52Zm14.9-.57l-.37,2.27c-.47,2.93-2.14,4.35-5.12,4.35h-4.18l1.78-11.15h4.01c2.59,0,3.96,1.2,3.96,3.46,0,.33,0,.69-.08,1.07Zm-4.27-2.06h-1.15l-.97,6.21h.95c1.32,0,2.01-.64,2.23-2.01l.35-2.27c.03-.24.05-.46.05-.64,0-.92-.44-1.29-1.46-1.29Z"/>
  </g>
</svg>