<?xml version="1.0" encoding="UTF-8"?>
<svg id="Capa_2" data-name="Capa 2" xmlns="http://www.w3.org/2000/svg" viewBox="0 0 28.68 20">
  <defs>
    <style>
      .cls-1 {
        fill: #fff;
      }
    </style>
  </defs>
  <g id="Capa_1-2" data-name="Capa 1">
    <g>
      <path class="cls-1" d="m28.68,4.4v.05c0,.92-.59,1.74-1.46,2.03-1.64.53-3.6.84-5.71.84-2.41,0-4.71-.71-7.05-1.42-2.34-.71-4.72-1.42-7.29-1.42-1.62,0-3.15.18-4.52.51S0,4.31,0,2.92v-.05C0,1.95.59,1.13,1.46.84c1.64-.53,3.6-.84,5.71-.84,2.57,0,4.95.71,7.29,1.42,2.34.71,4.64,1.42,7.05,1.42,1.62,0,3.15-.18,4.52-.51s2.65.68,2.65,2.07Z"/>
      <path class="cls-1" d="m28.68,10.71v.04c0,.93-.59,1.75-1.46,2.03-1.64.54-3.6.85-5.71.85-2.41,0-4.71-.71-7.05-1.42s-4.72-1.42-7.29-1.42c-1.62,0-3.15.18-4.52.51-1.35.32-2.65-.68-2.65-2.07v-.05c0-.92.59-1.74,1.46-2.03,1.65-.53,3.61-.84,5.71-.84,2.57,0,4.95.7,7.29,1.41s4.64,1.42,7.05,1.42c1.62,0,3.15-.18,4.52-.51,1.35-.32,2.65.69,2.65,2.08Z"/>
      <path class="cls-1" d="m28.68,17.08v.05c0,.92-.59,1.74-1.46,2.03-1.65.53-3.61.84-5.71.84-2.41,0-4.71-.71-7.05-1.42s-4.72-1.41-7.29-1.41c-1.62,0-3.15.18-4.52.51C1.3,18,0,16.99,0,15.6v-.05c0-.92.59-1.74,1.46-2.02,1.64-.54,3.6-.85,5.71-.85,2.57,0,4.95.71,7.29,1.42s4.64,1.42,7.05,1.42c1.62,0,3.15-.18,4.52-.51,1.35-.33,2.65.68,2.65,2.07Z"/>
    </g>
  </g>
</svg>