<?xml version="1.0" encoding="UTF-8"?>
<svg id="Capa_2" data-name="Capa 2" xmlns="http://www.w3.org/2000/svg" viewBox="0 0 33.32 17.49">
  <defs>
    <style>
      .cls-1 {
        fill: #fff;
      }
    </style>
  </defs>
  <g id="Capa_1-2" data-name="Capa 1">
    <path class="cls-1" d="m31.41,0H1.92C.86,0,0,.86,0,1.92v13.66c0,1.06.86,1.91,1.92,1.91h29.49c1.06,0,1.91-.85,1.91-1.91V1.92c0-1.06-.85-1.92-1.91-1.92ZM7.55,14.69h-2.87l1.77-11.16h2.87l-1.77,11.16Zm10.39-6.72l-.4,2.47h-4l-.67,4.25h-2.88l1.78-11.16h7.86l-.41,2.48h-4.98l-.3,1.96h4Zm10.23,6.72h-3.08l-1.2-3.96h-1l-.64,3.96h-2.88l1.78-11.16h4.18c2.46,0,3.73,1.01,3.73,3.05,0,1.45-.44,3.23-2.46,3.86l1.57,4.25Zm-3.21-8.68h-1.34l-.35,2.24h1.34c1.24,0,1.54-.7,1.54-1.3,0-.64-.4-.94-1.19-.94Z"/>
  </g>
</svg>