<?xml version="1.0" encoding="UTF-8"?>
<svg id="Capa_2" data-name="Capa 2" xmlns="http://www.w3.org/2000/svg" viewBox="0 0 37.25 21.34">
  <defs>
    <style>
      .cls-1 {
        fill: #fff;
      }
    </style>
  </defs>
  <g id="Capa_1-2" data-name="Capa 1">
    <g>
      <g>
        <path class="cls-1" d="m17.45,8.31l-.62.61c.55.56.89,1.3.89,2.13s-.34,1.6-.89,2.15l.62.61c.7-.71,1.13-1.68,1.13-2.76s-.44-2.05-1.13-2.75Zm-5.78,2.75c0-.83.34-1.57.87-2.13l-.6-.61c-.7.7-1.13,1.68-1.13,2.75s.44,2.05,1.13,2.76l.62-.61c-.55-.55-.89-1.3-.89-2.15Z"/>
        <g>
          <path class="cls-1" d="m27.25,11.95c0,3.88-3.17,6.95-7.02,6.95h-2.28l1.4-1.43h.88c3.03,0,5.46-2.48,5.46-5.52s-2.44-5.46-5.46-5.46h-7.02.01s.58.56.58.56l.09.1.74.71.19.19h-2.19l-.32-.32-.49-.5-.07-.07-.56-.58-.1-.09-.78-.79.19-.19.46-.48,1.79-1.82h2.24l-1.76,1.72h7.02c3.85,0,7.02,3.14,7.02,7.02Z"/>
          <path class="cls-1" d="m19.11,16.43l-.19.19-2.26,2.29h-2.22l1.75-1.72h-7.02c-3.84,0-7.02-3.14-7.02-7.02s3.18-6.96,7.02-6.96h2.29l-1.4,1.43h-.89c-3.02,0-5.46,2.48-5.46,5.53s2.45,5.46,5.46,5.46h7.02l-1.59-1.56h2.19l2.32,2.35Z"/>
        </g>
        <path class="cls-1" d="m15.55,11.06c0,.23-.1.45-.26.62-.15.14-.36.23-.59.23s-.44-.1-.6-.25c-.15-.16-.25-.37-.25-.6,0-.05,0-.11.01-.16.03-.11.07-.21.12-.3.03-.04.07-.08.1-.12.16-.16.38-.26.61-.26s.44.1.6.25c.15.16.25.37.25.6Z"/>
        <path class="cls-1" d="m10.75,14.78s.07.08.11.12l.12-.12h-.23Zm7.89-7.42s-.07-.08-.11-.12l-.6.6c.82.83,1.33,1.97,1.33,3.23s-.52,2.41-1.34,3.24l.49.48.12.12s.08-.08.11-.12c.92-.97,1.48-2.27,1.48-3.72s-.56-2.73-1.48-3.7Z"/>
        <path class="cls-1" d="m11.48,14.28l-.49.49h-.23c-.92-.97-1.48-2.27-1.48-3.72s.56-2.73,1.48-3.7c.03-.04.07-.08.11-.12l.12.12.48.49c-.82.83-1.33,1.96-1.33,3.21s.51,2.41,1.34,3.23Z"/>
        <path class="cls-1" d="m16.37,9.39l-.6.6c.27.27.44.66.44,1.07s-.18.81-.45,1.08l.62.6c.44-.42.7-1.03.7-1.68s-.26-1.24-.7-1.67Zm-3.19,1.67c0-.41.16-.78.44-1.05l-.6-.61c-.42.42-.7,1.01-.7,1.67s.27,1.26.7,1.68l.62-.61c-.27-.27-.45-.66-.45-1.07Z"/>
        <path class="cls-1" d="m16.37,9.39l-.6.6c.27.27.44.66.44,1.07s-.18.81-.45,1.08l.62.6c.44-.42.7-1.03.7-1.68s-.26-1.24-.7-1.67Zm-3.19,1.67c0-.41.16-.78.44-1.05l-.6-.61c-.42.42-.7,1.01-.7,1.67s.27,1.26.7,1.68l.62-.61c-.27-.27-.45-.66-.45-1.07Z"/>
      </g>
      <path class="cls-1" d="m34.11,0H3.13C1.4,0,0,1.41,0,3.14v15.07c0,1.73,1.4,3.13,3.13,3.13h30.98c1.73,0,3.14-1.4,3.14-3.13V3.14c0-1.73-1.41-3.14-3.14-3.14Zm-1.21,1.96h1.38l-.85,5.33h-1.38l.85-5.33Zm-3.51,16.25c0,1.18-.96,2.13-2.14,2.13H3.13c-1.18,0-2.13-.95-2.13-2.13V3.14c0-1.18.95-2.14,2.13-2.14h24.12c1.18,0,2.14.96,2.14,2.14v15.07Zm5.66,1.88h-1.47l-.58-1.89h-.48l-.3,1.89h-1.38l.85-5.33h2c1.18,0,1.78.48,1.78,1.45,0,.7-.2,1.55-1.17,1.85l.75,2.03Zm.44-10.55h-2.38l-.14.94h1.91l-.19,1.18h-1.91l-.32,2.03h-1.38l.85-5.33h3.76l-.2,1.18Zm-1.97,6.4h-.64l-.17,1.07h.64c.59,0,.73-.33.73-.62,0-.31-.19-.45-.56-.45Z"/>
    </g>
  </g>
</svg>