<?xml version="1.0" encoding="UTF-8"?>
<svg id="Capa_2" data-name="Capa 2" xmlns="http://www.w3.org/2000/svg" viewBox="0 0 25.49 12.4">
  <defs>
    <style>
      .cls-1 {
        fill: #fff;
      }
    </style>
  </defs>
  <g id="Capa_1-2" data-name="Capa 1">
    <g>
      <path class="cls-1" d="m24.21,2.52s-.06.12-.06.19v7.1c0,.18-.03.36-.08.52.1-.19.15-.4.15-.63V2.64s0-.08-.01-.12Z"/>
      <path class="cls-1" d="m23.85,1.7c-.25-.29-.63-.49-1.07-.49h-13.31s-.02-.08-.03-.12c-.22-.65-.83-1.09-1.54-1.09H1.63C.73,0,0,.73,0,1.63v9.13c0,.9.73,1.64,1.63,1.64h6.27c.09,0,.18,0,.26-.02.48-.07.88-.34,1.13-.75.04-.07.08-.43.11-.5h13.38c.44,0,.84-.19,1.09-.5.08-.09.14-.19.2-.3.05-.16.08-.34.08-.52V2.71c0-.07.02-.14.06-.19-.02-.32-.15-.6-.36-.82ZM4.94,9.23c-.35,0-.69-.14-.94-.39l-2.69-2.68,2.69-2.69c.25-.25.59-.39.94-.39h1.14l-3.08,3.08,3.08,3.07h-1.14Zm1.63-1.33h-.69c-.32,0-.62-.13-.85-.35l-1.39-1.39,1.39-1.4c.23-.22.53-.35.85-.35h.7l-1.75,1.75,1.74,1.74Zm16.9,1.8c0,.16-.06.31-.18.46-.12.14-.3.22-.51.22h-13.2V1.96h13.2c.19,0,.38.08.53.26.1.11.16.25.16.42v7.06Z"/>
      <g>
        <path class="cls-1" d="m13.48,5.07l-.27,1.28c-.04.28-.07.54-.12.83h-.03c-.05-.29-.1-.55-.17-.83l-.31-1.28h-.71l-.31,1.28c-.06.27-.11.54-.16.83h-.02c-.05-.29-.08-.55-.13-.83l-.26-1.28h-.82l.69,2.77h.94l.25-1.11c.05-.25.09-.51.14-.81h.02c.05.3.1.56.15.81l.25,1.11h.96l.67-2.77h-.76Z"/>
        <path class="cls-1" d="m17.81,5.07l-.26,1.28c-.05.28-.08.54-.13.83h-.02c-.06-.29-.11-.55-.17-.83l-.31-1.28h-.72l-.3,1.28c-.07.27-.12.54-.16.83h-.03c-.04-.29-.07-.55-.12-.83l-.27-1.28h-.81l.69,2.77h.94l.24-1.11c.06-.25.1-.51.14-.81h.03c.05.3.09.56.14.81l.26,1.11h.96l.66-2.77h-.76Z"/>
        <path class="cls-1" d="m22.15,5.07l-.26,1.28c-.05.28-.08.54-.13.83h-.02c-.06-.29-.11-.55-.18-.83l-.31-1.28h-.71l-.3,1.28c-.07.27-.12.54-.17.83h-.02c-.05-.29-.08-.55-.13-.83l-.26-1.28h-.82l.7,2.77h.94l.24-1.11c.05-.25.09-.51.14-.81h.02c.05.3.1.56.15.81l.25,1.11h.97l.66-2.77h-.76Z"/>
      </g>
      <path class="cls-1" d="m25.49,2.71v7.1c0,1.42-1.12,2.57-2.5,2.57h-13.88c.48-.07.52-.34.77-.75h13.11c.8,0,1.46-.54,1.67-1.3.05-.16.08-.34.08-.52V2.71c0-.07.02-.14.06-.19.07-.11.18-.18.32-.18.2,0,.37.17.37.37Z"/>
    </g>
  </g>
</svg>