<?xml version="1.0" encoding="UTF-8"?>
<svg id="Capa_2" data-name="Capa 2" xmlns="http://www.w3.org/2000/svg" viewBox="0 0 37.26 21.34">
  <defs>
    <style>
      .cls-1 {
        fill: #fff;
      }
    </style>
  </defs>
  <g id="Capa_1-2" data-name="Capa 1">
    <g>
      <rect class="cls-1" x="7.74" y="17.21" width="27.19" height="2.16" rx="1.08" ry="1.08"/>
      <path class="cls-1" d="m32.74,14.33s-3.71.42-10.23-.21l-7.27,2.41s-.87.3-1.39.06c-.52-.24-1.98-1.13-1.98-1.13,0,0-.13-.57.22-.34s.93.46.93.46l3.71-2.21c-8.5-1.39-12.91-3.37-12.91-3.37l2.84-1.01-1.36-6.81,1.22.11.25.05s.48,0,.95.65c.47.66,3.54,4.7,3.54,4.7,0,0,1.23,1.55,2.89,1.68,1.66.13,12.81,1,12.81,1,0,0,2.71.03,5.28,1.87,2.56,1.84.5,2.1.5,2.1Z"/>
      <path class="cls-1" d="m34.12,21.34H3.14c-1.73,0-3.14-1.41-3.14-3.14V3.14C0,1.41,1.41,0,3.14,0h30.98c1.73,0,3.14,1.41,3.14,3.14v15.06c0,1.73-1.41,3.14-3.14,3.14ZM3.14,1c-1.18,0-2.14.96-2.14,2.14v15.06c0,1.18.96,2.14,2.14,2.14h30.98c1.18,0,2.14-.96,2.14-2.14V3.14c0-1.18-.96-2.14-2.14-2.14H3.14Z"/>
    </g>
  </g>
</svg>