<?xml version="1.0" encoding="UTF-8"?>
<svg id="Capa_2" data-name="Capa 2" xmlns="http://www.w3.org/2000/svg" viewBox="0 0 37.25 21.34">
  <defs>
    <style>
      .cls-1 {
        fill: #fff;
      }
    </style>
  </defs>
  <g id="Capa_1-2" data-name="Capa 1">
    <path class="cls-1" d="m34.11,0H3.13C1.4,0,0,1.41,0,3.14v15.06c0,1.73,1.4,3.14,3.13,3.14h30.98c1.73,0,3.14-1.41,3.14-3.14V3.14c0-1.73-1.41-3.14-3.14-3.14Zm-.26,19.37H8.82c-.6,0-1.08-.48-1.08-1.08s.48-1.08,1.08-1.08h25.03c.6,0,1.08.49,1.08,1.08s-.48,1.08-1.08,1.08ZM5.3,2.17l1.22.11.25.05s.48,0,.94.65c.47.66,3.54,4.7,3.54,4.7,0,0,1.23,1.55,2.89,1.68,1.66.13,12.82,1,12.82,1,0,0,2.71.02,5.27,1.87,2.56,1.84.5,2.1.5,2.1,0,0-3.71.42-10.23-.21l-7.26,2.4s-.87.3-1.39.06c-.52-.24-1.98-1.13-1.98-1.13,0,0-.13-.57.22-.34.35.22.93.46.93.46l3.7-2.21c-8.5-1.39-12.9-3.37-12.9-3.37l2.84-1.01-1.36-6.81Z"/>
  </g>
</svg>