<?xml version="1.0" encoding="UTF-8"?>
<svg id="Capa_2" data-name="Capa 2" xmlns="http://www.w3.org/2000/svg" viewBox="0 0 22.49 13.67">
  <defs>
    <style>
      .cls-1 {
        fill: #fff;
      }
    </style>
  </defs>
  <g id="Capa_1-2" data-name="Capa 1">
    <g>
      <path class="cls-1" d="m5.45,3.94h-.75c0,.1-.06.17-.14.18h-.07c-.09,0-.15-.08-.15-.18h-.74s-.05,0-.06.03c-.02.01-.02.03-.02.06s0,.07.04.08l.93.44s.05.02.07,0l.92-.44s.05-.05.05-.08c0-.05-.03-.09-.08-.09Zm0,0h-.75c0,.1-.06.17-.14.18h-.07c-.09,0-.15-.08-.15-.18h-.74s-.05,0-.06.03c-.02.01-.02.03-.02.06s0,.07.04.08l.93.44s.05.02.07,0l.92-.44s.05-.05.05-.08c0-.05-.03-.09-.08-.09Zm0,0h-.75c0,.1-.06.17-.14.18h-.07c-.09,0-.15-.08-.15-.18h-.74s-.05,0-.06.03c-.02.01-.02.03-.02.06s0,.07.04.08l.93.44s.05.02.07,0l.92-.44s.05-.05.05-.08c0-.05-.03-.09-.08-.09Zm0,0h-.75c0,.1-.06.17-.14.18h-.07c-.09,0-.15-.08-.15-.18h-.74s-.05,0-.06.03c-.02.01-.02.03-.02.06s0,.07.04.08l.93.44s.05.02.07,0l.92-.44s.05-.05.05-.08c0-.05-.03-.09-.08-.09Zm0,0h-.75c0,.1-.06.17-.14.18h-.07c-.09,0-.15-.08-.15-.18h-.74s-.05,0-.06.03c-.02.01-.02.03-.02.06s0,.07.04.08l.93.44s.05.02.07,0l.92-.44s.05-.05.05-.08c0-.05-.03-.09-.08-.09Zm0,0h-.75c0,.1-.06.17-.14.18h-.07c-.09,0-.15-.08-.15-.18h-.74s-.05,0-.06.03c-.02.01-.02.03-.02.06s0,.07.04.08l.93.44s.05.02.07,0l.92-.44s.05-.05.05-.08c0-.05-.03-.09-.08-.09Zm0,0h-.75c0,.1-.06.17-.14.18h-.07c-.09,0-.15-.08-.15-.18h-.74s-.05,0-.06.03c-.02.01-.02.03-.02.06s0,.07.04.08l.93.44s.05.02.07,0l.92-.44s.05-.05.05-.08c0-.05-.03-.09-.08-.09Z"/>
      <path class="cls-1" d="m5.45,3.94h-.75c0,.1-.06.17-.14.18h-.07c-.09,0-.15-.08-.15-.18h-.74s-.05,0-.06.03c-.02.01-.02.03-.02.06s0,.07.04.08l.93.44s.05.02.07,0l.92-.44s.05-.05.05-.08c0-.05-.03-.09-.08-.09Zm0,0h-.75c0,.1-.06.17-.14.18h-.07c-.09,0-.15-.08-.15-.18h-.74s-.05,0-.06.03c-.02.01-.02.03-.02.06s0,.07.04.08l.93.44s.05.02.07,0l.92-.44s.05-.05.05-.08c0-.05-.03-.09-.08-.09Z"/>
      <path class="cls-1" d="m19.62,0H1.63C.73,0,0,.74,0,1.64v9.13c0,.91.73,1.64,1.63,1.64h17.99c.9,0,1.63-.73,1.63-1.64V1.64c0-.9-.73-1.64-1.63-1.64Zm-.35,6.06h-.48c-.22,0-.44-.09-.59-.25l-.98-.97.98-.97c.15-.16.37-.25.59-.25h.48l-1.21,1.22,1.21,1.22Zm-1.79-3.1c.18-.18.41-.27.66-.27h.8l-2.16,2.15,2.16,2.15h-.8c-.25,0-.48-.1-.66-.27l-1.88-1.88,1.88-1.88Zm-8.53,1.26h5.2c.31,0,.56.26.56.57s-.25.56-.56.56h-5.2c-.31,0-.56-.25-.56-.56s.25-.57.56-.57Zm0,1.94h5.2c.31,0,.56.26.56.57s-.25.56-.56.56h-5.2c-.31,0-.56-.25-.56-.56s.25-.57.56-.57Zm-2.68.35s-.01.07-.02.11l-.23.84c-.01.06-.03.12-.07.18l-.56.92c-.06.08-.13.17-.22.21-.11.08-.23.11-.35.11h-.62c-.12,0-.24-.03-.35-.09v-.02c-.08-.04-.15-.13-.21-.21l-.57-.92c-.03-.06-.06-.12-.08-.18l-.22-.84s-.02-.08-.02-.11l-.06-.55c.11.04.25.1.38.16.21.09.41.17.52.21.27.08.6.17.87.17h.09c.29,0,.61-.09.88-.17.13-.04.34-.12.56-.22.12-.06.24-.11.34-.15l-.06.55Zm.33-.94s-.89.42-1.17.49c-.27.09-.61.17-.88.17h-.09c-.27,0-.6-.08-.87-.17-.29-.07-1.16-.49-1.16-.49v-.25c.33,0,1.17-.06,2.08-.06s1.75.05,2.09.06v.25Zm0-.49v.03c-.35-.02-1.18-.06-2.09-.06s-1.74.04-2.08.06v-.03c-.09-.05-.26-.17-.26-.31,0-.25.28-.6.58-.92.41-.44,1.31-.93,1.75-.93h0c.43-.01,1.36.49,1.76.93.3.32.58.67.58.92,0,.14-.17.26-.25.31Zm12.35,4.21h-10c-.31,0-.56-.25-.56-.56s.25-.57.56-.57h10c.31,0,.56.26.56.57s-.25.56-.56.56Z"/>
      <path class="cls-1" d="m22.49,1.63v9.25c0,1.54-1.25,2.79-2.79,2.79H1.76c-.21,0-.37-.17-.37-.38s.16-.37.37-.37h17.94c1.13,0,2.04-.92,2.04-2.04V1.63c0-.21.17-.38.37-.38s.38.17.38.38Z"/>
    </g>
  </g>
</svg>