<?xml version="1.0" encoding="UTF-8"?>
<svg id="Capa_2" data-name="Capa 2" xmlns="http://www.w3.org/2000/svg" viewBox="0 0 22.76 13.49">
  <defs>
    <style>
      .cls-1 {
        fill: #fff;
      }
    </style>
  </defs>
  <g id="Capa_1-2" data-name="Capa 1">
    <g>
      <path class="cls-1" d="m20.8.15c-.07-.09-.18-.15-.29-.15H2.92c-.17,0-.32.12-.36.29L.01,10.2c-.03.11-.01.23.06.32.07.09.18.15.3.15h17.58c.17,0,.32-.12.36-.29L20.87.47c.03-.11,0-.23-.07-.32Zm-10.05,8.46c-.35,0-.69-.14-.94-.39l-2.69-2.69,2.69-2.69c.25-.25.59-.39.94-.39h1.14l-3.08,3.08,3.08,3.08h-1.14Zm1.62-1.34h-.7c-.31,0-.62-.12-.84-.35l-1.39-1.39,1.39-1.39c.22-.23.53-.35.84-.35h.7l-1.74,1.74,1.74,1.74Z"/>
      <path class="cls-1" d="m1.13,12.08c-.21,0-.38-.17-.38-.38s.17-.38.38-.38h16.99c.4,0,.74-.27.84-.65l2.25-8.54c.05-.2.26-.32.46-.27.2.05.32.26.27.46l-2.21,8.38c-.21.81-.94,1.37-1.78,1.37H1.13Z"/>
      <path class="cls-1" d="m18.26,13.49H2.21c-.21,0-.38-.17-.38-.38s.17-.38.38-.38h16.02c.94,0,1.77-.64,2.01-1.55l1.79-6.79c.05-.2.26-.32.46-.27.2.05.32.26.27.46l-1.79,6.81c-.32,1.23-1.43,2.08-2.7,2.08Z"/>
    </g>
  </g>
</svg>