<?xml version="1.0" encoding="UTF-8"?>
<svg id="Capa_2" data-name="Capa 2" xmlns="http://www.w3.org/2000/svg" viewBox="0 0 33.32 17.49">
  <defs>
    <style>
      .cls-1 {
        fill: #fff;
      }
    </style>
  </defs>
  <g id="Capa_1-2" data-name="Capa 1">
    <path class="cls-1" d="m31.4,0H1.91C.85,0,0,.86,0,1.92v13.66c0,1.06.85,1.91,1.91,1.91h29.49c1.06,0,1.92-.85,1.92-1.91V1.92c0-1.06-.86-1.92-1.92-1.92ZM15.36,4.95l.25.12.25-.13-.05.28.21.19-.28.04-.12.26-.13-.25-.28-.04.2-.2-.05-.27Zm.02,3.26l-.11-.62.56.28.54-.3-.09.62.45.43-.61.1-.27.57-.29-.56-.62-.08.44-.44Zm-2.19-2.37l.38.19.38-.2-.07.42.31.29-.42.07-.19.39-.19-.38-.43-.06.31-.3-.08-.42Zm-7.48-2.53l.25.13.25-.14-.05.28.21.19-.28.05-.12.25-.13-.25-.28-.04.2-.2-.05-.27Zm-2.38,3.51l.24-.46.22.47.51.09-.38.35.08.52-.46-.25-.47.23.1-.52-.36-.37.52-.06Zm6.63,7.5c-.04.12-.1.24-.17.34-.3.5-.86.84-1.49.84-.5,0-.96-.21-1.28-.55-.29.22-.65.34-1.04.34-.66,0-1.24-.36-1.54-.91-.2.08-.41.12-.63.12-.98,0-1.77-.79-1.77-1.77s.79-1.76,1.77-1.76h.03c.1-.87.85-1.55,1.75-1.55.05,0,.09,0,.14,0,.59.04,1.09.38,1.38.86.34-.36.83-.58,1.36-.58,1.01,0,1.84.78,1.91,1.77.78.02,1.4.66,1.4,1.44s-.64,1.45-1.44,1.45c-.13,0-.26-.02-.38-.05Zm2.34.83c-.6,0-1.18-.08-1.74-.23,1.01-.11,1.79-.96,1.79-2,0-.93-.62-1.71-1.48-1.94-.29-1.06-1.26-1.84-2.4-1.84-.45,0-.89.13-1.27.36-.41-.39-.95-.62-1.53-.64,0-.12,0-.23,0-.34,0-3.63,2.91-6.58,6.52-6.64-.53.96-.84,2.06-.84,3.24,0,3.66,2.97,6.63,6.64,6.63h.11c-1.13,2.03-3.3,3.4-5.79,3.4Zm16.7-1.22h-2.4l-2.4-6.3h-.03l-.99,6.3h-2.77l1.77-11.15h2.61l2.26,5.97h.03l.92-5.97h2.78l-1.78,11.15Z"/>
  </g>
</svg>