<?xml version="1.0" encoding="UTF-8"?>
<svg id="Capa_2" data-name="Capa 2" xmlns="http://www.w3.org/2000/svg" viewBox="0 0 18.18 25.72">
  <defs>
    <style>
      .cls-1 {
        fill: #fff;
      }
    </style>
  </defs>
  <g id="Capa_1-2" data-name="Capa 1">
    <g>
      <path class="cls-1" d="m16.24,9.28H1.94c-1.07,0-1.94.87-1.94,1.94v7.49c0,3.87,3.13,7,7,7h4.18c3.87,0,7-3.13,7-7v-7.49c0-1.07-.87-1.94-1.94-1.94Zm-6.21,7.86s0,.02,0,.04v1.88c0,.52-.42.94-.94.94s-.94-.42-.94-.94v-1.88s0-.02,0-.04c-.63-.33-1.05-1-1.05-1.76,0-1.1.89-1.99,1.99-1.99s1.99.89,1.99,1.99c0,.76-.43,1.42-1.05,1.76Z"/>
      <path class="cls-1" d="m14.66,5.57v2.98h-2.43v-2.98c0-.87-.35-1.65-.92-2.22-.57-.57-1.35-.92-2.22-.92-1.73,0-3.14,1.41-3.14,3.14v2.98h-2.43v-2.98C3.52,2.49,6.01,0,9.09,0c1.54,0,2.93.62,3.94,1.63,1.01,1.01,1.63,2.4,1.63,3.94Z"/>
    </g>
  </g>
</svg>