<?xml version="1.0" encoding="UTF-8"?>
<svg id="Capa_2" data-name="Capa 2" xmlns="http://www.w3.org/2000/svg" viewBox="0 0 22.09 16.05">
  <defs>
    <style>
      .cls-1 {
        fill: #fff;
      }
    </style>
  </defs>
  <g id="Capa_1-2" data-name="Capa 1">
    <g>
      <path class="cls-1" d="m21.17,1.46h-12.25s-.06-.02-.06-.06c0-.78-.63-1.4-1.4-1.4h-3.07c-.78,0-1.4.62-1.4,1.4,0,.04-.03.06-.07.06H.92c-.5,0-.92.42-.92.92v1.04c0,.51.42.92.92.92h2s.07.03.07.07v.06c0,.77.62,1.4,1.4,1.4h3.07c.77,0,1.4-.63,1.4-1.4v-.06s.03-.07.06-.07h12.25c.5,0,.92-.41.92-.92v-1.04c0-.5-.42-.92-.92-.92ZM7.18,3.94c0,.14-.11.25-.25.25h-2.02c-.14,0-.25-.11-.25-.25V1.92c0-.13.11-.25.25-.25h2.02c.14,0,.25.12.25.25v2.02Z"/>
      <path class="cls-1" d="m21.17,6.94h-3.34s-.07-.03-.07-.07v-.06c0-.77-.62-1.4-1.4-1.4h-3.07c-.77,0-1.4.63-1.4,1.4v.06s-.03.07-.07.07H1.05c-.39,0-.58.47-.31.74l2.14,2.14h8.94s.07.03.07.07c0,.77.63,1.39,1.4,1.39h3.07c.78,0,1.39-.61,1.4-1.39,0-.04.03-.07.07-.07h3.34c.51,0,.92-.41.92-.92v-1.04c0-.51-.42-.92-.92-.92Zm-5.08,2.42c0,.14-.11.25-.25.25h-2.02c-.14,0-.25-.11-.25-.25v-2.02c0-.14.11-.25.25-.25h2.02c.14,0,.25.11.25.25v2.02Z"/>
    </g>
    <path class="cls-1" d="m22.09,13.18v1.04c0,.51-.41.92-.92.92h-11.38s-.07.03-.07.06v.43c0,.23-.19.42-.43.42h0c-.1,0-.2-.03-.27-.1-.02,0-.04-.03-.05-.05l-.83-.82c-.06-.06-.09-.13-.09-.21v-2.11c0-.16-.13-.29-.29-.29h-2.1c-.08,0-.15-.03-.21-.09l-.83-.83s-.04-.03-.05-.05c-.07-.07-.11-.17-.11-.27v-.02c0-.23.19-.42.43-.42h3.44c.77,0,1.39.62,1.4,1.4,0,.04.03.07.07.07h11.38c.51,0,.92.41.92.92Z"/>
  </g>
</svg>