<?xml version="1.0" encoding="UTF-8"?>
<svg id="Capa_2" data-name="Capa 2" xmlns="http://www.w3.org/2000/svg" viewBox="0 0 22.45 20">
  <defs>
    <style>
      .cls-1 {
        fill: #fff;
      }
    </style>
  </defs>
  <g id="Capa_1-2" data-name="Capa 1">
    <g>
      <path class="cls-1" d="m14.96,11.48c0,2.06-1.67,3.73-3.73,3.73s-3.72-1.67-3.72-3.73,1.67-3.72,3.72-3.72,3.73,1.67,3.73,3.72Z"/>
      <path class="cls-1" d="m20.3,2.31h-3.93c-.39-1.34-1.64-2.31-3.11-2.31h-4.09c-1.47,0-2.71.97-3.11,2.31h-3.93c-1.18,0-2.15.96-2.15,2.15v13.4c0,1.18.96,2.15,2.15,2.15h18.16c1.18,0,2.15-.96,2.15-2.15V4.45c0-1.18-.96-2.15-2.15-2.15Zm-9.08,15.05c-3.24,0-5.87-2.63-5.87-5.88s2.63-5.87,5.87-5.87,5.88,2.63,5.88,5.87-2.63,5.88-5.88,5.88Z"/>
    </g>
  </g>
</svg>