<?xml version="1.0" encoding="UTF-8"?>
<svg id="Capa_2" data-name="Capa 2" xmlns="http://www.w3.org/2000/svg" viewBox="0 0 20 21.55">
  <defs>
    <style>
      .cls-1 {
        fill: #fff;
      }
    </style>
  </defs>
  <g id="Capa_1-2" data-name="Capa 1">
    <path class="cls-1" d="m11.26,14.66c0,.31-.11,1.7-.3,3.15l3.42,1.68c.28.13.47.54.47,1v1.03l-4.3-1.2c-.17.74-.36,1.24-.55,1.24s-.38-.5-.55-1.24l-4.3,1.2v-1.03c0-.46.19-.86.47-1l3.42-1.68c-.18-1.45-.3-2.84-.3-3.15v-2.04L0,14.42v-1.58c0-.71.51-1.25,1.14-1.55l7.6-3.73v-3.97c0-.69.56-3.59,1.26-3.59.35,0,.66.72.89,1.53.22.81.37,1.71.37,2.06v3.97l7.6,3.73c.63.3,1.14.84,1.14,1.55v1.58l-8.74-1.8v2.04Z"/>
  </g>
</svg>