<?xml version="1.0" encoding="UTF-8"?>
<svg id="Capa_2" data-name="Capa 2" xmlns="http://www.w3.org/2000/svg" viewBox="0 0 20 20">
  <defs>
    <style>
      .cls-1 {
        fill: #fff;
      }
    </style>
  </defs>
  <g id="Capa_1-2" data-name="Capa 1">
    <path class="cls-1" d="m15.28.13l-.13-.13H2.22C1,0,0,1,0,2.22v15.56c0,1.23,1,2.22,2.22,2.22h15.56c1.23,0,2.22-.99,2.22-2.22V4.85L15.28.13ZM4.96,1.59h8.73v4.34c0,.45-.37.81-.81.81h-7.11c-.45,0-.81-.36-.81-.81V1.59Zm.26,16.81v-5.4c0-.45.37-.81.81-.81h7.86c.45,0,.81.37.81.81v5.4H5.22Zm13.19-.63c0,.35-.28.63-.63.63h-1.48v-5.4c0-1.33-1.08-2.4-2.4-2.4h-7.86c-1.33,0-2.4,1.08-2.4,2.4v5.4h-1.41c-.35,0-.63-.28-.63-.63V2.22c0-.34.28-.63.63-.63h1.14v4.34c0,1.33,1.08,2.4,2.4,2.4h7.11c1.33,0,2.4-1.08,2.4-2.4v-3.55l3.12,3.13v12.27Z"/>
  </g>
</svg>