<?xml version="1.0" encoding="UTF-8"?>
<svg id="Capa_2" data-name="Capa 2" xmlns="http://www.w3.org/2000/svg" viewBox="0 0 22.19 14.61">
  <defs>
    <style>
      .cls-1 {
        fill: #fff;
      }
    </style>
  </defs>
  <g id="Capa_1-2" data-name="Capa 1">
    <g>
      <path class="cls-1" d="m19.12,2.56l-.09-.51c-.03-.18-.19-.31-.37-.31h-3.98c-.05-.23-.13-.44-.25-.64-.38-.66-1.09-1.1-1.9-1.1h-4.09c-.58,0-1.13.23-1.56.65-.3.3-.5.68-.59,1.09h-3.97c-.18,0-.34.13-.37.31L0,13.04c-.02.11.01.23.08.31.07.09.18.13.29.13h20.21c.11,0,.22-.04.29-.13.07-.08.1-.2.08-.31l-1.84-10.48Zm-7.65,9.27c-.35,0-.69-.14-.94-.39l-2.69-2.68,2.69-2.69c.25-.25.59-.39.94-.39h1.14l-3.08,3.08,3.08,3.07h-1.14Zm1.62-1.33h-.69c-.32,0-.62-.13-.85-.35l-1.39-1.39,1.39-1.4c.23-.22.53-.35.85-.35h.7l-1.75,1.75,1.74,1.74Zm.2-7.76c0,.58-.46,1.05-1.05,1.05h-3.52c-.58,0-1.04-.47-1.04-1.05v-.22c0-.58.46-1.05,1.04-1.05h3.52c.59,0,1.05.47,1.05,1.05v.22Z"/>
      <path class="cls-1" d="m20.65,14.61H.94c-.21,0-.38-.17-.38-.38s.17-.38.38-.38h19.7c.24,0,.46-.1.61-.28s.21-.42.17-.65l-1.79-10.1c-.04-.2.1-.4.3-.43.2-.04.4.1.43.3l1.79,10.1c.08.45-.04.91-.34,1.26-.29.35-.72.55-1.18.55Z"/>
    </g>
  </g>
</svg>