<?xml version="1.0" encoding="UTF-8"?>
<svg id="Capa_2" data-name="Capa 2" xmlns="http://www.w3.org/2000/svg" viewBox="0 0 37.25 21.34">
  <defs>
    <style>
      .cls-1 {
        fill: #fff;
      }
    </style>
  </defs>
  <g id="Capa_1-2" data-name="Capa 1">
    <path class="cls-1" d="m34.12,0H3.14C1.41,0,0,1.41,0,3.14v15.06c0,1.73,1.41,3.14,3.14,3.14h30.98c1.73,0,3.13-1.41,3.13-3.14V3.14c0-1.73-1.4-3.14-3.13-3.14Zm-.23,19.36H9.06c-.59,0-1.07-.48-1.07-1.07s.48-1.08,1.07-1.08h24.83c.6,0,1.08.48,1.08,1.08s-.48,1.07-1.08,1.07ZM4.54,5.7l.25-.06s.44-.2,1.13.21c.7.41,5.15,2.85,5.15,2.85,0,0,1.76.91,3.32.35,1.57-.55,12.11-4.31,12.11-4.31,0,0,2.49-1.08,5.58-.45,3.09.64,1.31,1.72,1.31,1.72,0,0-3.21,1.89-9.42,3.98l-5.66,5.16s-.67.62-1.24.62c-.58,0-2.27-.23-2.27-.23,0,0-.35-.46.06-.4s1.04.04,1.04.04l2.48-3.53c-8.25,2.18-13.07,2.19-13.16,2.19l2.18-2.08L3.39,6.09l1.15-.39Z"/>
  </g>
</svg>