<?xml version="1.0" encoding="UTF-8"?>
<svg id="Capa_2" data-name="Capa 2" xmlns="http://www.w3.org/2000/svg" viewBox="0 0 37.26 21.34">
  <defs>
    <style>
      .cls-1 {
        fill: #fff;
      }
    </style>
  </defs>
  <g id="Capa_1-2" data-name="Capa 1">
    <g>
      <rect class="cls-1" x="7.99" y="17.21" width="26.98" height="2.14" rx="1.07" ry="1.07"/>
      <path class="cls-1" d="m33.39,6.01s-3.22,1.9-9.43,3.98l-5.65,5.16s-.67.63-1.24.62c-.58,0-2.27-.23-2.27-.23,0,0-.35-.46.06-.4s1.04.04,1.04.04l2.48-3.53c-8.33,2.2-13.16,2.19-13.16,2.19l2.19-2.08L3.39,6.1l1.16-.4.25-.06s.44-.2,1.13.21c.7.41,5.15,2.85,5.15,2.85,0,0,1.76.92,3.32.36,1.57-.56,12.11-4.32,12.11-4.32,0,0,2.49-1.08,5.58-.45,3.09.64,1.31,1.71,1.31,1.71Z"/>
      <path class="cls-1" d="m34.12,21.34H3.14c-1.73,0-3.14-1.41-3.14-3.14V3.14C0,1.41,1.41,0,3.14,0h30.98c1.73,0,3.14,1.41,3.14,3.14v15.06c0,1.73-1.41,3.14-3.14,3.14ZM3.14,1c-1.18,0-2.14.96-2.14,2.14v15.06c0,1.18.96,2.14,2.14,2.14h30.98c1.18,0,2.14-.96,2.14-2.14V3.14c0-1.18-.96-2.14-2.14-2.14H3.14Z"/>
    </g>
  </g>
</svg>