<?xml version="1.0" encoding="UTF-8"?>
<svg id="Capa_2" data-name="Capa 2" xmlns="http://www.w3.org/2000/svg" viewBox="0 0 20 20">
  <defs>
    <style>
      .cls-1 {
        fill: #fff;
      }
    </style>
  </defs>
  <g id="Capa_1-2" data-name="Capa 1">
    <g>
      <path class="cls-1" d="m10.81,19.97C4.66,20.46-.46,15.34.03,9.19.41,4.34,4.34.41,9.19.03c6.15-.49,11.27,4.63,10.78,10.78-.38,4.85-4.31,8.76-9.15,9.15Zm.07-18.66C5.38.76.76,5.38,1.31,10.9c.41,4.08,3.71,7.39,7.79,7.79,5.52.55,10.13-4.07,9.58-9.59-.41-4.08-3.71-7.39-7.79-7.79Z"/>
      <path class="cls-1" d="m9.84,10.94c-.12,0-.23-.03-.33-.09-.19-.12-.31-.32-.31-.54V3.15c0-.35.28-.63.63-.63s.63.28.63.63v6.12l3.41-1.76c.37-.19.85.02.92.47.05.27-.12.54-.37.66l-4.31,2.23c-.09.05-.19.07-.29.07v-.02Z"/>
    </g>
  </g>
</svg>