<?xml version="1.0" encoding="UTF-8"?>
<svg id="Capa_2" data-name="Capa 2" xmlns="http://www.w3.org/2000/svg" viewBox="0 0 18.06 20.04">
  <defs>
    <style>
      .cls-1 {
        fill: #fff;
      }
    </style>
  </defs>
  <g id="Capa_1-2" data-name="Capa 1">
    <path class="cls-1" d="m9.16,11.76s.09,0,.13-.01c.04,0,.08-.03.11-.05-.07.04-.16.06-.24.06Z"/>
    <path class="cls-1" d="m10.2,2.3V.96h.31v-.96h-3.07v.96h.31v1.39c-1.55.25-2.96.89-4.14,1.83l-.97-.98.22-.22-.68-.68L0,4.47l.68.68.22-.22,1.03,1.04c-1.05,1.45-1.67,3.24-1.67,5.17,0,4.92,3.98,8.9,8.9,8.9s8.9-3.98,8.9-8.9c0-4.56-3.43-8.32-7.86-8.84Zm2.98,7.45l-3.68,1.9-.07.04s-.02.01-.03.01c-.03.02-.07.04-.11.05-.04.01-.08.01-.13.01-.07,0-.15-.01-.22-.05-.03,0-.05-.02-.08-.03-.03-.02-.06-.04-.09-.08l-.05-.05c-.08-.09-.12-.21-.12-.34v-6.28c0-.31.24-.55.55-.55s.56.24.56.55v5.36l.39-.2,2.6-1.34c.32-.17.73.02.8.41.04.24-.1.47-.32.59Z"/>
    <path class="cls-1" d="m9.4,11.7s-.07.04-.11.05c-.04.01-.08.01-.13.01.08,0,.17-.02.24-.06Z"/>
  </g>
</svg>