<?xml version="1.0" encoding="UTF-8"?>
<svg id="Capa_2" data-name="Capa 2" xmlns="http://www.w3.org/2000/svg" viewBox="0 0 37.25 21.34">
  <defs>
    <style>
      .cls-1 {
        fill: #fff;
      }
    </style>
  </defs>
  <g id="Capa_1-2" data-name="Capa 1">
    <g>
      <path class="cls-1" d="m33.28,16.19h-.64l-.17,1.07h.64c.59,0,.74-.33.74-.62,0-.31-.2-.45-.57-.45Zm0,0h-.64l-.17,1.07h.64c.59,0,.74-.33.74-.62,0-.31-.2-.45-.57-.45Zm0,0h-.64l-.17,1.07h.64c.59,0,.74-.33.74-.62,0-.31-.2-.45-.57-.45Zm0,0h-.64l-.17,1.07h.64c.59,0,.74-.33.74-.62,0-.31-.2-.45-.57-.45Zm.83-16.19H3.13C1.4,0,0,1.4,0,3.13v15.07c0,1.73,1.4,3.14,3.13,3.14h30.98c1.73,0,3.14-1.41,3.14-3.14V3.13c0-1.73-1.41-3.13-3.14-3.13Zm-4.72,18.2c0,1.18-.96,2.14-2.14,2.14H3.13c-1.18,0-2.13-.96-2.13-2.14V3.13c0-1.18.95-2.13,2.13-2.13h24.12c1.18,0,2.14.95,2.14,2.13v15.07Zm5.42,2.14h-1.47l-.57-1.89h-.48l-.31,1.89h-1.37l.85-5.33h1.99c1.18,0,1.79.48,1.79,1.45,0,.7-.21,1.55-1.18,1.85l.75,2.03Zm.45-10.55h-2.38l-.15.94h1.91l-.19,1.18h-1.91l-.32,2.03h-1.38l.85-5.33h3.76l-.19,1.18Zm-2.01-2.25h-1.44l-.82-5.33h1.39l.4,3.52h.01l1.51-3.52h1.43l-2.48,5.33Zm.03,8.65h-.64l-.17,1.07h.64c.59,0,.74-.33.74-.62,0-.31-.2-.45-.57-.45Zm0,0h-.64l-.17,1.07h.64c.59,0,.74-.33.74-.62,0-.31-.2-.45-.57-.45Zm0,0h-.64l-.17,1.07h.64c.59,0,.74-.33.74-.62,0-.31-.2-.45-.57-.45Z"/>
      <g>
        <g>
          <path class="cls-1" d="m27.25,11.53c0,3.88-3.17,6.95-7.02,6.95h-2.28l1.4-1.43h.88c3.03,0,5.46-2.48,5.46-5.52s-2.44-5.46-5.46-5.46h-7.02.01s.58.56.58.56l.09.1.74.71.19.19h-2.19l-.32-.32-.49-.5-.07-.07-.56-.58-.1-.09-.78-.79.19-.19.46-.48,1.79-1.82h2.24l-1.76,1.72h7.02c3.85,0,7.02,3.14,7.02,7.02Z"/>
          <path class="cls-1" d="m19.11,16.01l-.19.19-2.26,2.29h-2.22l1.75-1.72h-7.02c-3.84,0-7.02-3.14-7.02-7.02s3.18-6.96,7.02-6.96h2.29l-1.4,1.43h-.89c-3.02,0-5.46,2.48-5.46,5.53s2.45,5.46,5.46,5.46h7.02l-1.59-1.56h2.19l2.32,2.35Z"/>
        </g>
        <g>
          <path class="cls-1" d="m15.68,10.64c0,.27-.11.52-.3.71-.17.16-.41.27-.68.27s-.51-.11-.7-.28c-.17-.19-.28-.43-.28-.7,0-.06,0-.13.02-.19.03-.13.08-.24.14-.35.03-.05.08-.09.11-.14.19-.19.44-.3.71-.3s.51.11.7.28c.17.19.28.43.28.7Z"/>
          <path class="cls-1" d="m14.69,13.14c-1.78,0-3.55-.68-4.91-2.03h0l-.19-.19c-.15-.15-.15-.41,0-.56l.19-.19c2.71-2.71,7.11-2.71,9.82,0l.19.19c.15.15.15.41,0,.56l-.19.19c-1.35,1.35-3.13,2.03-4.91,2.03Zm-4.26-2.5c2.37,2.28,6.14,2.28,8.51,0-2.37-2.28-6.14-2.28-8.51,0Z"/>
        </g>
      </g>
    </g>
  </g>
</svg>