<?xml version="1.0" encoding="UTF-8"?>
<svg id="Capa_2" data-name="Capa 2" xmlns="http://www.w3.org/2000/svg" viewBox="0 0 22.49 13.67">
  <defs>
    <style>
      .cls-1 {
        fill: #fff;
      }
    </style>
  </defs>
  <g id="Capa_1-2" data-name="Capa 1">
    <g>
      <path class="cls-1" d="m22.49,1.63v9.25c0,1.54-1.25,2.79-2.79,2.79H1.76c-.21,0-.37-.17-.37-.38s.16-.37.37-.37h17.94c1.13,0,2.04-.92,2.04-2.04V1.63c0-.21.17-.38.37-.38s.38.17.38.38Z"/>
      <path class="cls-1" d="m19.62,0H1.63C.73,0,0,.74,0,1.64v9.13c0,.91.73,1.64,1.63,1.64h17.99c.9,0,1.63-.73,1.63-1.64V1.64c0-.9-.73-1.64-1.63-1.64ZM6.48,9.49c-.35,0-.69-.14-.94-.39l-2.69-2.68,2.69-2.69c.25-.25.59-.39.94-.39h1.14l-3.08,3.08,3.08,3.07h-1.14Zm1.62-1.33h-.69c-.32,0-.62-.13-.85-.35l-1.39-1.39,1.39-1.4c.23-.22.53-.35.85-.35h.7l-1.75,1.75,1.74,1.74Zm9.33.59h-6.83c-.31,0-.56-.26-.56-.57s.25-.56.56-.56h6.83c.31,0,.56.25.56.56s-.25.57-.56.57Zm0-2.05h-6.83c-.31,0-.56-.25-.56-.56s.25-.57.56-.57h6.83c.31,0,.56.26.56.57s-.25.56-.56.56Zm0-2h-6.83c-.31,0-.56-.25-.56-.56s.25-.57.56-.57h6.83c.31,0,.56.26.56.57s-.25.56-.56.56Z"/>
    </g>
  </g>
</svg>